<?xml version="1.0" encoding="utf-8"?>
<!-- Generator: Adobe Illustrator 28.2.0, SVG Export Plug-In . SVG Version: 6.00 Build 0)  -->
<svg version="1.1" id="Laag_1" xmlns="http://www.w3.org/2000/svg" xmlns:xlink="http://www.w3.org/1999/xlink" x="0px" y="0px"
	 width="202.9px" height="301.1px" viewBox="0 0 202.9 301.1" style="enable-background:new 0 0 202.9 301.1;" xml:space="preserve"
	>
<style type="text/css">
	.st0{fill:#FF0000;}
	.st1{fill:none;stroke:#000000;stroke-miterlimit:10;}
	.st2{fill:#FFFFFF;}
</style>
<g id="XMLID_00000146483085341206550380000005539288668853241729_">
	<g>
		<path class="st0" d="M202.5,101.5c0,14.2-2.9,27.7-8.2,40L182,162.6l-31.8,54.5l-48.7,83.1l-49.3-84.3l-31.1-53.2L8.7,141.5
			c-5.3-12.3-8.2-25.8-8.2-40c0-55.8,45.2-101,101-101S202.5,45.7,202.5,101.5z M141.5,101.5c0-22.1-17.9-40-40-40s-40,17.9-40,40
			s17.9,40,40,40S141.5,123.6,141.5,101.5z"/>
	</g>
	<g>
		<path class="st1" d="M101.5,0.5c-55.8,0-101,45.2-101,101c0,14.2,2.9,27.7,8.2,40L21,162.6l31.1,53.2l49.3,84.3L150,217l31.8-54.5
			l12.3-21.1c5.3-12.3,8.2-25.8,8.2-40C202.5,45.7,157.3,0.5,101.5,0.5z"/>
		<circle class="st1" cx="101.5" cy="101.5" r="40"/>
	</g>
</g>
<g>
	<circle class="st2" cx="101.5" cy="101.5" r="39.5"/>
	<path d="M101.5,62.5c21.5,0,39,17.5,39,39s-17.5,39-39,39s-39-17.5-39-39S80,62.5,101.5,62.5 M101.5,61.5c-22.1,0-40,17.9-40,40
		s17.9,40,40,40s40-17.9,40-40S123.6,61.5,101.5,61.5L101.5,61.5z"/>
</g>
<g>
	<circle class="st2" cx="101.5" cy="101.5" r="39.5"/>
	<path d="M101.5,62.5c21.5,0,39,17.5,39,39s-17.5,39-39,39s-39-17.5-39-39S80,62.5,101.5,62.5 M101.5,61.5c-22.1,0-40,17.9-40,40
		s17.9,40,40,40s40-17.9,40-40S123.6,61.5,101.5,61.5L101.5,61.5z"/>
</g>
</svg>
